PathFileType	4	(X/Y/Z)	path1_10_0-575.trc
DataRate	CameraRate	NumFrames	NumMarkers	Units	OrigDataRate	OrigDataStartFrame	OrigNumFrames
30	30	6	22	m	30	431	575
Frame#	Time	Hip			RHip			RKnee			RAnkle			RBigToe			RSmallToe			RHeel			LHip			LKnee			LAnkle			LBigToe			LSmallToe			LHeel			Neck			Head			Nose			RShoulder			RElbow			RWrist			LShoulder			LElbow			LWrist		
		X1	Y1	Z1	X2	Y2	Z2	X3	Y3	Z3	X4	Y4	Z4	X5	Y5	Z5	X6	Y6	Z6	X7	Y7	Z7	X8	Y8	Z8	X9	Y9	Z9	X10	Y10	Z10	X11	Y11	Z11	X12	Y12	Z12	X13	Y13	Z13	X14	Y14	Z14	X15	Y15	Z15	X16	Y16	Z16	X17	Y17	Z17	X18	Y18	Z18	X19	Y19	Z19	X20	Y20	Z20	X21	Y21	Z21	X22	Y22	Z22
432	14.4	0.2312155617154711	0.8488580815547976	0.8073469333277935	0.23569872036778186	0.8265026636823438	0.7086207095733718	0.19908585608581306	0.48079048862269763	0.7234763428275088	0.23869172945875908	0.1029331073866881	0.7585411040394385	0.049311678145803554	0.027791268609085543	0.7586159274794403	0.09338147179107772	0.016489391273704756	0.7056686780752436	0.28661235106661753	0.03121269763940284	0.7681709224459472	0.23678275822359363	0.8188038567977972	0.8972241546937657	0.13527367003188018	0.492682563023242	0.897481852366844	0.3977406470809453	0.2536778024184003	0.8746091793076068	0.3387772890237476	0.0874475490456867	0.9103650153828725	0.35677578438696805	0.10354330105206588	0.9401039353262609	0.46874198022690305	0.23683808141271895	0.8678282003819254	0.2235767315836263	1.4501802067979819	0.7957367688938429	0.16419258272598933	1.6835511187213765	0.7948859227196099	0.06816724976298941	1.5599516520577357	0.8237447545550161	0.24577433699429627	1.3440955113343278	0.6180536739812562	0.24977420764554212	1.072702660942257	0.578750704243618	0.19230370134664226	0.8362100487895145	0.5675636720153006	0.2496147978254247	1.3531702771156455	0.9889470227001829	0.24939317158170066	1.0816085818378245	1.0327261519967885	0.18895110070400067	0.8466720903329608	1.0645300229067638
433	14.433333333333334	0.1960426184324256	0.8520973263445548	0.8076844378123331	0.20447288074965742	0.8266941659898035	0.7098177710453063	0.18623539152232083	0.4826575084056177	0.7233496668404339	0.23840298908080457	0.10333592969936836	0.7594880701649238	0.05209053051616482	0.02680999503654212	0.7588433762695104	0.0957466573311928	0.01627872616883809	0.7062651599013733	0.28607479938759833	0.032875822723961445	0.7702081894442763	0.20005232889276547	0.8201848399749025	0.8991803661941237	0.0784967580769185	0.5038114869296764	0.9020878737043923	0.30720084696721517	0.23502132921868002	0.8773720180332801	0.22022181702633303	0.0931697586485703	0.907515231746751	0.2356209645092576	0.10588635630711399	0.9342404100064322	0.3760180825206684	0.20797659529259768	0.8722203085664325	0.18856389373351334	1.4530975740391567	0.7959471993264572	0.12368995317417908	1.6908725759542402	0.7998177385797312	0.039511512994363986	1.5611554685611384	0.8178454321087932	0.2092891830244984	1.3470429591403263	0.6167645543319371	0.2004344954892342	1.074731361019757	0.5762157526104041	0.12461938864935262	0.8424508465422291	0.5652698617695839	0.21693832514852052	1.3551245537256067	0.9885128610821813	0.22396131348037926	1.085970782817499	1.0356874149526085	0.1752191960032041	0.8480832106379443	1.0668979582020381
434	14.466666666666669	0.16282677199435264	0.8542454076183642	0.8079155413948246	0.17506907186858922	0.8268559624769315	0.7100209283384792	0.17326840351618253	0.4837672710386794	0.723288465114772	0.23723877916415084	0.1040814865761586	0.7600829285063087	0.056489089419073935	0.02623895931419119	0.7589846568214402	0.09783540976239796	0.01744686607818814	0.7067373759003269	0.2840702098549712	0.035040770912795005	0.7718359045315855	0.1656412472082628	0.8211280316951283	0.9017651362341188	0.02750289679853829	0.512382278388122	0.9065033330527783	0.20985607202220674	0.21034871285966222	0.8824907651985814	0.09078892302806081	0.09353307763460285	0.9043518672396278	0.10903868260691282	0.10589876300710777	0.9300961813964794	0.275524999999572	0.17118441979882396	0.8792751632169515	0.1532108593206442	1.4547633373689788	0.7972792573429522	0.08190554327915643	1.6985355950977892	0.8062233621383358	0.009079254065589563	1.5611462127367146	0.8136218465797156	0.1728975792086947	1.3486309626808257	0.6161250143388989	0.15229551324414284	1.0767906555737041	0.5737175086887721	0.060371804496017534	0.8491724617681251	0.5616228625454823	0.183614533052365	1.3560799190980557	0.9891830709222793	0.1991651558793372	1.0898891141588778	1.0401963342813438	0.1619341470869651	0.8491998110185991	1.0699955189867432
435	14.5	0.13112484271635094	0.8551964251216173	0.8082189824394628	0.1468291409393624	0.8273029244239076	0.7094134713583305	0.15954770739606286	0.48381741034508374	0.7238596766665066	0.23532991014689802	0.10491473419777742	0.7602068567136302	0.06149224338018033	0.026087203116843215	0.7589436105197571	0.09902692862745208	0.019760202436757305	0.7069023730377374	0.28098612161238423	0.037527161425518755	0.7735647192515774	0.13308447346669494	0.8220093940598692	0.904756625218666	-0.01832282076652106	0.5165465014795756	0.9107088338636037	0.10732340984231467	0.18464534084647044	0.8899110377582103	-0.04112426537743037	0.09107595339803931	0.9028459417533176	-0.016201459497769397	0.10420826822538684	0.9297784473669153	0.16817877503642564	0.13369763786043076	0.8885329245490141	0.11740119686317628	1.4550497598546306	0.7994793465047557	0.04026328332517017	1.7047247319507401	0.8124118198377557	-0.02344433156358255	1.5598376519514483	0.8115037500710065	0.13638030365683157	1.3487721862032833	0.6162949167760297	0.10562072534357789	1.0785573412941039	0.5713020622172985	-0.00014187500424048954	0.855749818950997	0.5576870446678266	0.14964450378702643	1.355846790926605	0.9908345293235405	0.17414038150165959	1.0926622831889161	1.0449396854535142	0.1481648709240616	0.8493524574462719	1.0732301222935494
436	14.533333333333331	0.1001849621952955	0.8548250652599663	0.8089266954516782	0.11859447625601474	0.8275946053397278	0.7086347698956708	0.14470774795267557	0.482585114522331	0.725436935124373	0.23288509455401438	0.10566273224656951	0.7599751404846485	0.06562261586572096	0.026262787777081475	0.7586629669683964	0.09901469964074197	0.022509145005707484	0.7066622501545782	0.2776587675047511	0.04014995696791332	0.7755278822970517	0.10152885080140005	0.8226059428293021	0.9078384669844939	-0.05972381416938682	0.5153317183477137	0.9144544909858955	0.0033251934404778458	0.16234402401068135	0.8986072856459696	-0.16539334521756718	0.08922212535260264	0.9047402133700828	-0.13300002709662576	0.10116101361890377	0.9349190252949452	0.05684942570761213	0.10155750087635099	0.8983163658510895	0.08110387870017688	1.453999045108956	0.8023079515401027	-0.00012726593474603198	1.7083116536318883	0.817148412433862	-0.05789407890541892	1.5572509709194118	0.8116838696245543	0.09962619405100684	1.347560344968298	0.6174863458133109	0.0605148887811495	1.0796208428620093	0.5693851014418081	-0.05787596094381673	0.8615911513276115	0.554969311948125	0.11517711537211914	1.3544178226300057	0.9933331304389239	0.14862519187142822	1.093831573764093	1.0491172317354291	0.13276608244977803	0.8482837120424219	1.075957298235357
437	14.566666666666666	0.06914610112091651	0.8531040206967776	0.8104181531676132	0.089152794532088	0.8270353091047858	0.7084343171010128	0.12830981036953326	0.4801322695303205	0.7279568671578004	0.23010887235533392	0.1065906245442182	0.7597766711845778	0.06757863406235175	0.026547730966114833	0.7581018948718464	0.0982371575949725	0.024732031900043625	0.7063107699081291	0.2747982638098092	0.04302259092525839	0.7775241363719644	0.06999488713944331	0.8224022060606383	0.9108694311605624	-0.09767113499992877	0.5096612999620703	0.9172192549037296	-0.09633931775986798	0.14571233631529196	0.9069553459486785	-0.2748098625929646	0.09034278139374986	0.9098745648430167	-0.23635189126915312	0.09801163918679275	0.9446575860443532	-0.05255649481359253	0.07776184439558624	0.906491137357452	0.04439620627474004	1.4518298038415303	0.8056120528553885	-0.0385785806231814	1.7094164659903381	0.8198561933254476	-0.09421321758865378	1.5536760504967102	0.8143254598063115	0.06267775036946628	1.3452112475657214	0.6198200442991241	0.016782852068823274	1.0796194896594469	0.5685753415443464	-0.11359344977163505	0.866288599449911	0.5545007035923772	0.0803024082654041	1.3519431717295805	0.9965715652636616	0.12249520358781095	1.0934052330938298	1.0525864292688418	0.11482736638110637	0.8461559276624129	1.077921142260945
